<svg width="3083" height="1071" viewBox="0 0 3083 1071" fill="none" xmlns="http://www.w3.org/2000/svg">
<g clip-path="url(#clip0_14611_5961)">
<mask id="mask0_14611_5961" style="mask-type:luminance" maskUnits="userSpaceOnUse" x="0" y="0" width="3083" height="1071">
<path d="M3083 0H0V1071H3083V0Z" fill="white"/>
</mask>
<g mask="url(#mask0_14611_5961)">
<path d="M1070.54 602.248L1030.03 444.192C1028.86 439.542 1025.12 435.926 1020.48 434.765L863.994 396.155C862.832 395.894 861.543 395.766 860.383 395.766C856.642 395.378 852.77 396.54 849.933 399.382L585.854 663.715L550.894 527.094C549.732 522.447 545.993 518.831 541.348 517.666L406.922 484.48L670.871 220.277C672.418 218.727 673.322 216.789 673.968 214.853C675.128 212.269 675.516 209.299 674.742 206.459L634.233 48.4011C633.071 43.7523 629.33 40.1367 624.687 38.9746L468.201 0.364103C465.103 -0.410795 462.008 0.105732 459.298 1.39716H459.168C458.394 1.78461 457.751 2.30114 456.977 2.81766C456.331 3.3342 455.427 3.59235 454.911 4.23797L4.4194 454.91C4.4194 454.91 3.64526 456.202 3.12921 456.848C0.291156 460.203 -0.740895 464.593 0.549076 468.855L44.2829 621.62C45.5724 626.009 48.9278 629.367 53.1846 630.529L199.737 672.627L241.793 819.192C243.083 823.582 246.436 826.94 250.696 828.102L397.764 870.328L439.948 1017.54C441.237 1021.93 444.591 1025.29 448.848 1026.45L602.109 1070.48C603.271 1070.87 604.56 1071 605.72 1071C605.98 1071 606.238 1070.87 606.624 1070.87C606.624 1070.87 606.754 1070.87 606.884 1070.87C610.237 1070.87 613.591 1069.58 616.17 1067L1066.79 615.938C1068.34 614.388 1069.25 612.452 1069.89 610.514C1071.05 607.933 1071.44 604.963 1070.66 602.121L1070.54 602.248ZM868.509 777.482L835.613 648.994L908.502 576.166L1033.77 612.192L868.637 777.612L868.509 777.482ZM612.947 1033.29L580.049 904.806L711.895 772.832L837.161 808.86L612.947 1033.29ZM714.605 733.19L683.126 623.428L796.266 651.32L714.605 733.06V733.19ZM814.197 670.431L843.096 783.164L733.051 751.525L814.197 670.301V670.431ZM817.938 629.755L689.705 598.117L854.448 433.217L890.054 557.568L817.938 629.755ZM657.841 629.883L693.447 754.237L562.246 885.565L434.015 853.928L657.841 629.883ZM1006.68 458.007L1039.57 586.495L915.209 550.725L879.603 426.631L1006.68 458.007ZM414.662 834.818L381.766 706.329L429.24 658.81L554.505 694.838L414.662 834.818ZM431.949 619.166L400.471 509.403L513.611 537.296L431.949 619.038V619.166ZM560.44 669.269L450.396 637.631L531.544 556.409L560.44 669.139V669.269ZM410.921 640.343L364.091 687.218L235.859 655.58L375.315 515.989L410.921 640.343ZM263.335 232.674L298.943 357.026L166.582 489.516L38.3483 457.88L263.335 232.674ZM458.782 37.0377L494.39 161.391L423.435 232.415L295.202 200.777L458.782 37.0377ZM474.006 380.144L441.11 251.786L512.837 179.987L638.102 215.885L474.006 380.144ZM320.099 335.98L288.623 226.215L401.76 254.109L320.099 335.849V335.98ZM419.693 273.22L448.592 385.953L338.678 354.317L419.824 273.093L419.693 273.22ZM317.52 375.494L442.788 411.392L217.411 636.985L184.513 508.627L317.52 375.494ZM611.011 62.0893L643.91 190.576L519.543 154.805L483.94 30.7102L611.011 62.0893ZM31.8986 483.318L145.037 511.211L63.3759 592.951L31.8986 483.191V483.318ZM81.8241 611.546L162.97 530.322L191.866 643.054L81.9533 611.418L81.8241 611.546ZM264.885 805.114L229.28 681.021L356.351 712.399L389.247 840.887L264.885 805.114ZM427.562 879.367L540.702 907.26L459.04 989L427.562 879.239V879.367ZM477.489 1007.59L558.635 926.371L587.531 1039.1L477.489 1007.47V1007.59Z" fill="url(#paint0_linear_14611_5961)"/>
<path d="M1413.9 623.474C1380.95 623.474 1352.31 616.906 1327.68 603.769C1303.15 590.632 1284.06 572.774 1270.61 549.99C1257.07 527.308 1250.4 501.137 1250.4 471.579C1250.4 442.023 1256.96 415.85 1270.1 393.17C1283.24 370.49 1301.3 352.528 1324.4 339.391C1347.49 326.254 1373.77 319.686 1403.43 319.686C1433.09 319.686 1457.93 326.051 1480.51 338.775C1503.09 351.502 1520.74 369.36 1533.67 392.246C1546.61 415.133 1553.07 442.33 1553.07 473.736C1553.07 476.3 1553.07 479.587 1552.77 483.485C1552.56 487.386 1552.35 490.771 1551.94 493.748H1305.31V447.769H1515.4L1487.69 462.136C1488.1 445.511 1484.61 430.63 1477.43 417.493C1470.25 404.356 1460.29 394.197 1447.77 387.014C1435.25 379.829 1420.36 376.235 1403.43 376.235C1386.49 376.235 1371.92 379.829 1358.78 387.014C1345.64 394.197 1335.59 404.46 1328.6 417.8C1321.62 431.144 1318.03 446.435 1318.03 463.78V474.866C1318.03 492.618 1322.04 508.322 1329.94 521.972C1337.84 535.623 1349.24 546.296 1364.02 553.788C1378.8 561.383 1395.94 565.178 1415.54 565.178C1432.17 565.178 1447.15 562.408 1460.39 556.866C1473.73 551.324 1485.54 543.216 1495.9 532.439L1533.57 575.648C1519.92 591.145 1502.99 603.052 1482.87 611.158C1462.75 619.266 1439.76 623.371 1413.9 623.371V623.474Z" fill="white"/>
<path d="M1552.43 381.266V325.847H1749.7V381.266H1552.43ZM1703.2 623.477C1670.67 623.477 1645.52 615.061 1627.87 598.23C1610.11 581.396 1601.28 556.765 1601.28 524.233V258.212H1670.05V521.975C1670.05 536.036 1673.75 546.913 1681.14 554.714C1688.53 562.514 1698.89 566.311 1712.13 566.311C1727.32 566.311 1739.85 562.206 1749.8 554.098L1769.71 603.464C1761.2 610.134 1751.03 615.061 1739.23 618.446C1727.43 621.733 1715.42 623.477 1703.2 623.477Z" fill="white"/>
<path d="M1961.46 319.789C1985.49 319.789 2006.62 324.407 2024.9 333.643C2043.16 342.882 2057.73 357.146 2068.73 376.339C2079.6 395.531 2085.04 420.161 2085.04 450.029V619.573H2015.77V458.855C2015.77 432.581 2009.71 413.079 1997.49 400.149C1985.27 387.218 1967.94 380.75 1945.34 380.75C1929.14 380.75 1914.67 384.034 1902.15 390.706C1889.61 397.378 1879.87 407.231 1873.1 420.367C1866.22 433.504 1862.84 450.029 1862.84 469.938V619.573H1794.06V208.331H1862.84V403.946L1848.46 379.006C1858.42 360.121 1873.3 345.55 1893.12 335.184C1912.92 324.818 1935.7 319.686 1961.56 319.686L1961.46 319.789Z" fill="white"/>
<path d="M2273.55 623.474C2240.61 623.474 2211.98 616.906 2187.34 603.769C2162.81 590.632 2143.72 572.774 2130.27 549.99C2116.72 527.308 2110.06 501.137 2110.06 471.579C2110.06 442.023 2116.62 415.85 2129.77 393.17C2142.9 370.49 2160.96 352.528 2184.05 339.391C2207.15 326.254 2233.43 319.686 2263.09 319.686C2292.74 319.686 2317.6 326.051 2340.17 338.775C2362.75 351.502 2380.4 369.36 2393.33 392.246C2406.26 415.133 2412.74 442.33 2412.74 473.736C2412.74 476.3 2412.74 479.587 2412.42 483.485C2412.22 487.386 2412.01 490.771 2411.61 493.748H2164.96V447.769H2375.07L2347.35 462.136C2347.76 445.511 2344.27 430.63 2337.09 417.493C2329.9 404.356 2319.95 394.197 2307.42 387.014C2294.9 379.829 2280.03 376.235 2263.09 376.235C2246.14 376.235 2231.58 379.829 2218.44 387.014C2205.3 394.197 2195.24 404.46 2188.27 417.8C2181.28 431.144 2177.7 446.435 2177.7 463.78V474.866C2177.7 492.618 2181.7 508.322 2189.6 521.972C2197.5 535.623 2208.89 546.296 2223.68 553.788C2238.46 561.383 2255.59 565.178 2275.2 565.178C2291.83 565.178 2306.8 562.408 2320.05 556.866C2333.4 551.324 2345.2 543.216 2355.56 532.439L2393.23 575.648C2379.59 591.145 2362.65 603.052 2342.53 611.158C2322.41 619.266 2299.42 623.371 2273.55 623.371V623.474Z" fill="white"/>
<path d="M2443.65 619.576V323.587H2509.64V405.076L2501.85 381.266C2510.37 361.357 2524.23 346.066 2543.41 335.597C2562.62 325.027 2586.11 319.792 2613.82 319.792V385.781C2611.26 385.374 2608.71 385.167 2606.03 384.961C2603.45 384.757 2601 384.654 2598.83 384.654C2572.25 384.654 2551.2 392.249 2535.63 407.334C2520.12 422.524 2512.31 445.617 2512.31 476.61V619.576H2443.55H2443.65Z" fill="white"/>
<path d="M2744.07 381.264V325.842H2941.3V381.264H2744.07ZM2792.8 619.574V307.574C2792.8 276.168 2801.94 251.128 2820.22 232.449C2838.47 213.771 2864.66 204.431 2898.61 204.431C2910.84 204.431 2922.32 205.765 2933.32 208.331C2944.18 210.896 2953.34 215.001 2960.71 220.544L2941.3 272.064C2936.51 268.782 2930.74 266.009 2924.18 263.751C2917.5 261.494 2910.74 260.467 2903.65 260.467C2889.3 260.467 2878.29 264.471 2870.9 272.373C2863.53 280.275 2859.82 292.079 2859.82 307.574V341.956L2861.47 372.438V619.574H2792.71H2792.8ZM3025.07 274.834C3012.13 274.834 3001.56 270.73 2993.26 262.621C2984.93 254.515 2980.83 244.559 2980.83 232.654C2980.83 221.57 2984.93 211.923 2993.26 203.816C3001.56 195.706 3012.13 191.601 3025.07 191.601C3038 191.601 3048.58 195.399 3056.98 202.994C3065.31 210.588 3069.41 220.237 3069.41 232.038C3069.41 243.841 3065.31 253.898 3057.18 262.211C3049.1 270.526 3038.31 274.734 3025.07 274.734V274.834ZM2990.68 619.574V323.585H3059.44V619.574H2990.68Z" fill="white"/>
<path d="M2696.12 608.183L2668.6 562.72C2666.56 559.433 2662.98 557.382 2659.17 557.382H2658.97C2655.07 557.382 2651.38 559.639 2649.42 563.13L2623.87 609.313C2620.35 615.675 2620.35 623.374 2623.87 629.736L2649.51 676.022C2651.48 679.513 2655.07 681.669 2659.07 681.77H2659.17C2663.07 681.77 2666.76 679.719 2668.7 676.332L2696.12 629.942C2700.12 623.27 2700.02 614.958 2696.12 608.286V608.183Z" fill="white"/>
</g>
<path d="M1294.57 879L1244 746.03H1273.91L1301.3 824.106C1303.06 829.071 1304.66 834.437 1306.1 840.202C1307.54 845.968 1308.54 850.812 1309.1 854.736H1310.06C1310.62 850.652 1311.71 845.768 1313.31 840.082C1314.91 834.316 1316.55 828.991 1318.23 824.106L1345.62 746.03H1375.41L1324.84 879H1294.57ZM1508.83 743.508C1520.68 743.508 1530.85 745.95 1539.34 750.835C1547.83 755.72 1554.35 762.646 1558.92 771.615C1563.48 780.584 1565.77 791.314 1565.77 803.807V818.941H1477C1477.32 831.834 1480.76 841.764 1487.33 848.73C1493.98 855.697 1503.26 859.181 1515.2 859.181C1523.68 859.181 1531.29 858.38 1538.02 856.778C1544.82 855.097 1551.83 852.654 1559.04 849.451V872.394C1552.39 875.517 1545.63 877.799 1538.74 879.24C1531.85 880.682 1523.6 881.402 1513.99 881.402C1500.94 881.402 1489.45 878.88 1479.52 873.835C1469.67 868.71 1461.94 861.103 1456.34 851.013C1450.81 840.923 1448.05 828.391 1448.05 813.416C1448.05 798.521 1450.57 785.869 1455.62 775.459C1460.66 765.049 1467.75 757.121 1476.88 751.676C1486.01 746.23 1496.66 743.508 1508.83 743.508ZM1508.83 764.769C1499.94 764.769 1492.73 767.651 1487.21 773.417C1481.76 779.183 1478.56 787.631 1477.6 798.762H1538.14C1538.06 792.115 1536.94 786.229 1534.77 781.104C1532.69 775.979 1529.49 771.976 1525.17 769.093C1520.92 766.21 1515.48 764.769 1508.83 764.769ZM1727.17 743.508C1742.15 743.508 1753.8 747.392 1762.13 755.159C1770.54 762.847 1774.74 775.219 1774.74 792.275V879H1746.51V797.561C1746.51 787.23 1744.39 779.503 1740.15 774.378C1735.9 769.173 1729.34 766.57 1720.45 766.57C1707.55 766.57 1698.59 770.534 1693.54 778.462C1688.58 786.39 1686.09 797.881 1686.09 812.936V879H1657.87V746.03H1679.85L1683.81 764.048H1685.37C1688.26 759.403 1691.82 755.6 1696.06 752.637C1700.39 749.594 1705.19 747.312 1710.48 745.79C1715.84 744.269 1721.41 743.508 1727.17 743.508ZM1924.02 858.58C1927.7 858.58 1931.34 858.26 1934.95 857.619C1938.55 856.898 1941.83 856.058 1944.8 855.097V876.478C1941.67 877.839 1937.63 879 1932.67 879.961C1927.7 880.922 1922.54 881.402 1917.17 881.402C1909.64 881.402 1902.88 880.161 1896.87 877.679C1890.86 875.116 1886.1 870.752 1882.58 864.586C1879.05 858.42 1877.29 849.892 1877.29 839.001V767.531H1859.15V754.919L1878.61 744.949L1887.86 716.481H1905.64V746.03H1943.72V767.531H1905.64V838.641C1905.64 845.367 1907.32 850.372 1910.68 853.655C1914.05 856.938 1918.49 858.58 1924.02 858.58ZM2148.01 746.03V879H2125.79L2121.94 861.103H2120.38C2117.58 865.667 2114.01 869.471 2109.69 872.514C2105.37 875.477 2100.56 877.679 2095.28 879.12C2089.99 880.642 2084.42 881.402 2078.58 881.402C2068.57 881.402 2060 879.721 2052.87 876.357C2045.83 872.914 2040.42 867.629 2036.66 860.502C2032.89 853.375 2031.01 844.166 2031.01 832.875V746.03H2059.36V827.59C2059.36 837.92 2061.44 845.647 2065.61 850.772C2069.85 855.897 2076.42 858.46 2085.31 858.46C2093.87 858.46 2100.68 856.698 2105.73 853.175C2110.77 849.651 2114.33 844.446 2116.42 837.56C2118.58 830.673 2119.66 822.225 2119.66 812.215V746.03H2148.01ZM2316.14 743.508C2318.38 743.508 2320.83 743.628 2323.47 743.868C2326.11 744.108 2328.39 744.429 2330.32 744.829L2327.67 771.255C2325.99 770.774 2323.91 770.414 2321.43 770.174C2319.02 769.934 2316.86 769.813 2314.94 769.813C2309.9 769.813 2305.09 770.654 2300.53 772.336C2295.96 773.938 2291.92 776.42 2288.39 779.783C2284.87 783.066 2282.11 787.19 2280.11 792.155C2278.1 797.12 2277.1 802.886 2277.1 809.452V879H2248.76V746.03H2270.86L2274.7 769.453H2276.02C2278.67 764.729 2281.95 760.404 2285.87 756.48C2289.8 752.557 2294.28 749.434 2299.33 747.111C2304.45 744.709 2310.06 743.508 2316.14 743.508ZM2468.18 743.508C2480.03 743.508 2490.2 745.95 2498.69 750.835C2507.18 755.72 2513.71 762.646 2518.27 771.615C2522.83 780.584 2525.12 791.314 2525.12 803.807V818.941H2436.35C2436.67 831.834 2440.11 841.764 2446.68 848.73C2453.33 855.697 2462.62 859.181 2474.55 859.181C2483.04 859.181 2490.64 858.38 2497.37 856.778C2504.18 855.097 2511.18 852.654 2518.39 849.451V872.394C2511.74 875.517 2504.98 877.799 2498.09 879.24C2491.2 880.682 2482.96 881.402 2473.35 881.402C2460.29 881.402 2448.8 878.88 2438.87 873.835C2429.02 868.71 2421.3 861.103 2415.69 851.013C2410.16 840.923 2407.4 828.391 2407.4 813.416C2407.4 798.521 2409.92 785.869 2414.97 775.459C2420.01 765.049 2427.1 757.121 2436.23 751.676C2445.36 746.23 2456.01 743.508 2468.18 743.508ZM2468.18 764.769C2459.29 764.769 2452.09 767.651 2446.56 773.417C2441.12 779.183 2437.91 787.631 2436.95 798.762H2497.49C2497.41 792.115 2496.29 786.229 2494.13 781.104C2492.04 775.979 2488.84 771.976 2484.52 769.093C2480.27 766.21 2474.83 764.769 2468.18 764.769ZM2706.59 841.043C2706.59 849.771 2704.46 857.139 2700.22 863.145C2695.97 869.15 2689.77 873.715 2681.6 876.838C2673.51 879.881 2663.58 881.402 2651.81 881.402C2642.52 881.402 2634.52 880.722 2627.79 879.36C2621.14 878.079 2614.86 876.077 2608.93 873.354V848.971C2615.26 851.934 2622.34 854.496 2630.19 856.658C2638.12 858.82 2645.61 859.901 2652.65 859.901C2661.94 859.901 2668.63 858.46 2672.71 855.577C2676.8 852.614 2678.84 848.69 2678.84 843.806C2678.84 840.923 2678 838.36 2676.32 836.118C2674.71 833.796 2671.67 831.434 2667.19 829.031C2662.78 826.549 2656.3 823.586 2647.73 820.143C2639.32 816.779 2632.23 813.416 2626.47 810.053C2620.7 806.689 2616.34 802.646 2613.37 797.921C2610.41 793.116 2608.93 786.99 2608.93 779.543C2608.93 767.771 2613.57 758.843 2622.86 752.757C2632.23 746.591 2644.6 743.508 2659.98 743.508C2668.15 743.508 2675.84 744.349 2683.04 746.03C2690.33 747.632 2697.46 749.994 2704.42 753.117L2695.53 774.378C2689.53 771.735 2683.48 769.573 2677.4 767.892C2671.39 766.13 2665.27 765.249 2659.02 765.249C2651.73 765.249 2646.17 766.37 2642.32 768.612C2638.56 770.854 2636.68 774.058 2636.68 778.222C2636.68 781.345 2637.6 783.987 2639.44 786.149C2641.28 788.312 2644.44 790.474 2648.93 792.636C2653.49 794.798 2659.82 797.48 2667.91 800.684C2675.84 803.727 2682.68 806.93 2688.45 810.293C2694.29 813.576 2698.78 817.62 2701.9 822.425C2705.02 827.229 2706.59 833.436 2706.59 841.043Z" fill="white"/>
</g>
<defs>
<linearGradient id="paint0_linear_14611_5961" x1="-35.7294" y1="1488.4" x2="1434.29" y2="-217.849" gradientUnits="userSpaceOnUse">
<stop offset="0.110139" stop-color="#81FFD1"/>
<stop offset="0.821355" stop-color="#0050AE"/>
</linearGradient>
<clipPath id="clip0_14611_5961">
<rect width="3083" height="1071" fill="white"/>
</clipPath>
</defs>
</svg>
