<?xml version="1.0" encoding="UTF-8"?><svg id="Calque_1" xmlns="http://www.w3.org/2000/svg" viewBox="0 0 1068.35 1068.35"><defs><style>.cls-1{fill:#fff;}</style></defs><path class="cls-1" d="M527.05,485.86v73.69h-9.62v-33.41h-37.53v33.41h-9.62v-73.69h9.62v32.35h37.53v-32.35h9.62Z"/><path class="cls-1" d="M593.34,501.61l-34.89,85.22h-9.94l11.42-27.91-23.37-57.3h10.68l18.18,46.94,17.97-46.94h9.94Z"/><path class="cls-1" d="M621.1,503.99c3.77-2.22,8.16-3.33,13.16-3.33s9.81,1.23,14.01,3.7c4.19,2.47,7.49,5.94,9.89,10.41,2.39,4.48,3.59,9.67,3.59,15.6s-1.2,11.07-3.59,15.65c-2.4,4.58-5.69,8.14-9.89,10.68-4.2,2.54-8.87,3.81-14.01,3.81s-9.29-1.11-13.06-3.33c-3.77-2.22-6.65-4.99-8.62-8.3v38.17h-9.62v-85.43h9.62v10.68c1.9-3.31,4.74-6.08,8.51-8.3ZM649.27,518.95c-1.76-3.24-4.14-5.71-7.14-7.4-3-1.69-6.29-2.54-9.89-2.54s-6.79.86-9.78,2.59c-3,1.73-5.39,4.23-7.19,7.51-1.8,3.28-2.7,7.07-2.7,11.36s.9,8.19,2.7,11.47c1.8,3.28,4.19,5.78,7.19,7.51,2.99,1.73,6.26,2.59,9.78,2.59s6.89-.86,9.89-2.59c2.99-1.72,5.37-4.23,7.14-7.51,1.76-3.28,2.64-7.14,2.64-11.58s-.88-8.18-2.64-11.42Z"/><path class="cls-1" d="M726.98,534.17h-46.31c.35,5.71,2.31,10.17,5.87,13.37,3.56,3.21,7.88,4.81,12.95,4.81,4.16,0,7.63-.97,10.41-2.91,2.78-1.94,4.74-4.53,5.87-7.77h10.36c-1.55,5.57-4.65,10.1-9.3,13.59s-10.43,5.23-17.34,5.23c-5.5,0-10.41-1.23-14.75-3.7-4.34-2.47-7.74-5.97-10.2-10.52-2.47-4.55-3.7-9.81-3.7-15.81s1.2-11.24,3.6-15.75c2.39-4.51,5.76-7.98,10.1-10.41,4.33-2.43,9.32-3.65,14.96-3.65s10.36,1.2,14.59,3.59c4.23,2.4,7.49,5.69,9.78,9.89,2.29,4.19,3.44,8.93,3.44,14.22,0,1.83-.11,3.77-.32,5.82ZM714.93,516.89c-1.62-2.64-3.82-4.65-6.61-6.03-2.78-1.37-5.87-2.06-9.25-2.06-4.86,0-9.01,1.55-12.42,4.65-3.42,3.1-5.37,7.4-5.87,12.9h36.58c0-3.67-.81-6.82-2.43-9.46Z"/><path class="cls-1" d="M756.85,503.3c3.14-1.83,6.96-2.75,11.47-2.75v9.94h-2.54c-10.78,0-16.18,5.85-16.18,17.55v31.51h-9.62v-57.94h9.62v9.41c1.69-3.31,4.11-5.88,7.24-7.72Z"/><path class="cls-1" d="M797.71,503.94c3.81-2.19,8.14-3.28,13-3.28,5.22,0,9.9,1.23,14.06,3.7,4.16,2.47,7.44,5.94,9.83,10.41,2.39,4.48,3.59,9.67,3.59,15.6s-1.2,11.07-3.59,15.65c-2.4,4.58-5.69,8.14-9.89,10.68-4.2,2.54-8.87,3.81-14.01,3.81s-9.39-1.09-13.16-3.28c-3.77-2.18-6.61-4.97-8.51-8.35v10.68h-9.62v-78.24h9.62v31.08c1.97-3.45,4.86-6.27,8.67-8.46ZM825.73,518.95c-1.76-3.24-4.14-5.71-7.14-7.4-3-1.69-6.29-2.54-9.89-2.54s-6.79.86-9.78,2.59c-3,1.73-5.39,4.23-7.19,7.51-1.8,3.28-2.7,7.07-2.7,11.36s.9,8.19,2.7,11.47c1.8,3.28,4.19,5.78,7.19,7.51,2.99,1.73,6.26,2.59,9.78,2.59s6.89-.86,9.89-2.59c2.99-1.72,5.37-4.23,7.14-7.51,1.76-3.28,2.64-7.14,2.64-11.58s-.88-8.18-2.64-11.42Z"/><path class="cls-1" d="M903.44,534.17h-46.31c.35,5.71,2.31,10.17,5.87,13.37,3.56,3.21,7.88,4.81,12.95,4.81,4.16,0,7.63-.97,10.41-2.91,2.78-1.94,4.74-4.53,5.87-7.77h10.36c-1.55,5.57-4.65,10.1-9.3,13.59-4.65,3.49-10.43,5.23-17.34,5.23-5.5,0-10.41-1.23-14.75-3.7-4.34-2.47-7.74-5.97-10.2-10.52-2.47-4.55-3.7-9.81-3.7-15.81s1.2-11.24,3.6-15.75c2.39-4.51,5.76-7.98,10.1-10.41,4.33-2.43,9.32-3.65,14.96-3.65s10.36,1.2,14.59,3.59c4.23,2.4,7.49,5.69,9.78,9.89,2.29,4.19,3.44,8.93,3.44,14.22,0,1.83-.11,3.77-.32,5.82ZM891.39,516.89c-1.62-2.64-3.82-4.65-6.61-6.03-2.78-1.37-5.87-2.06-9.25-2.06-4.86,0-9.01,1.55-12.42,4.65-3.42,3.1-5.37,7.4-5.87,12.9h36.58c0-3.67-.81-6.82-2.43-9.46Z"/><path class="cls-1" d="M916.45,514.77c2.39-4.47,5.69-7.94,9.88-10.41,4.19-2.47,8.87-3.7,14.01-3.7s9.48,1.09,13.22,3.28c3.73,2.19,6.52,4.93,8.35,8.25v-10.57h9.73v57.94h-9.73v-10.78c-1.9,3.38-4.74,6.18-8.51,8.41-3.77,2.22-8.16,3.33-13.16,3.33s-9.8-1.27-13.96-3.81c-4.16-2.54-7.44-6.1-9.83-10.68-2.4-4.58-3.6-9.79-3.6-15.65s1.2-11.12,3.6-15.6ZM959.27,519.05c-1.76-3.24-4.14-5.72-7.14-7.45-3-1.73-6.29-2.59-9.89-2.59s-6.87.85-9.83,2.54c-2.96,1.69-5.32,4.16-7.08,7.4-1.76,3.24-2.64,7.05-2.64,11.42s.88,8.3,2.64,11.58c1.76,3.28,4.12,5.78,7.08,7.51,2.96,1.73,6.24,2.59,9.83,2.59s6.89-.86,9.89-2.59c2.99-1.72,5.37-4.23,7.14-7.51,1.76-3.28,2.64-7.1,2.64-11.47s-.88-8.17-2.64-11.42Z"/><path class="cls-1" d="M999.65,509.54v34.15c0,2.82.6,4.81,1.8,5.97,1.2,1.16,3.28,1.74,6.24,1.74h7.08v8.14h-8.67c-5.36,0-9.38-1.23-12.05-3.7-2.68-2.47-4.02-6.52-4.02-12.16v-34.15h-7.51v-7.93h7.51v-14.59h9.62v14.59h15.12v7.93h-15.12Z"/><path class="cls-1" d="M386.66,472.76c-9.21,0-10.75.51-13.3-2.05-2.56-2.55-2.05-4.09-2.05-13.3,0-7.68-7.68-15.36-15.35-15.36-9.22,0-10.75.52-13.31-2.04-2.56-2.56-2.05-4.1-2.05-13.31,0-7.67-7.67-15.35-15.35-15.35s-15.35,7.68-15.35,15.35c0,9.21.51,10.75-2.05,13.31-2.56,2.56-4.1,2.04-13.31,2.04-7.67,0-15.35,7.68-15.35,15.36,0,9.21.51,10.75-2.05,13.3-2.56,2.56-4.09,2.05-13.3,2.05s-10.75.51-13.31-2.05c-2.56-2.55-2.05-4.09-2.05-13.3,0-7.68-7.67-15.36-15.35-15.36-9.21,0-10.75.52-13.31-2.04-2.56-2.56-2.04-4.1-2.04-13.31,0-7.67-7.68-15.35-15.36-15.35s-15.35,7.68-15.35,15.35c0,9.21.51,10.75-2.05,13.31s-4.09,2.04-13.3,2.04c-7.68,0-15.36,7.68-15.36,15.36,0,9.21.52,10.75-2.04,13.3-2.56,2.56-4.1,2.05-13.31,2.05-7.68,0-15.35,7.68-15.35,15.35v30.71c0,7.68,7.67,15.35,15.35,15.35,9.21,0,10.75-.51,13.31,2.05,2.56,2.56,2.04,4.1,2.04,13.31,0,7.67,7.68,15.35,15.36,15.35,9.21,0,10.74-.51,13.3,2.05s2.05,4.09,2.05,13.3c0,7.68,7.68,15.36,15.35,15.36,9.22,0,10.75-.51,13.31,2.04,2.56,2.56,2.05,4.1,2.05,13.31,0,7.68,7.67,15.35,15.35,15.35,9.21,0,10.75-.51,13.31,2.05,2.55,2.56,2.04,4.09,2.04,13.31,0,7.67,7.68,15.35,15.36,15.35s15.35-7.68,15.35-15.35c0-9.22-.51-10.75,2.05-13.31s4.09-2.05,13.3-2.05c7.68,0,15.36-7.67,15.36-15.35,0-9.21-.52-10.75,2.04-13.31,2.56-2.55,4.1-2.04,13.31-2.04,7.68,0,15.35-7.68,15.35-15.36,0-9.21-.51-10.74,2.05-13.3,2.56-2.56,4.09-2.05,13.31-2.05,7.67,0,15.35-7.68,15.35-15.35,0-9.21-.51-10.75,2.05-13.31,2.55-2.56,4.09-2.05,13.3-2.05,7.68,0,15.36-7.67,15.36-15.35v-30.71c0-7.67-7.68-15.35-15.36-15.35ZM369.26,532.13c-2.56,2.56-4.09,2.04-13.3,2.04-7.68,0-15.36,7.68-15.36,15.36,0,9.21.51,10.74-2.04,13.3-2.56,2.56-4.1,2.05-13.31,2.05-7.68,0-15.35,7.68-15.35,15.35,0,9.22.51,10.75-2.05,13.31-2.56,2.56-4.1,2.05-13.31,2.05-7.67,0-15.35,7.67-15.35,15.35,0,9.21.51,10.75-2.05,13.31-2.56,2.56-4.09,2.04-13.3,2.04s-10.75.52-13.31-2.04-2.05-4.1-2.05-13.31c0-7.68-7.67-15.35-15.35-15.35-9.21,0-10.75.51-13.31-2.05-2.56-2.56-2.04-4.09-2.04-13.31,0-7.67-7.68-15.35-15.36-15.35-9.21,0-10.74.51-13.3-2.05-2.56-2.56-2.05-4.09-2.05-13.3,0-7.68-7.68-15.36-15.35-15.36-9.21,0-10.75.52-13.31-2.04-2.56-2.56-2.05-4.1-2.05-13.31v-30.71c0-9.21-.51-10.74,2.05-13.3,2.56-2.56,4.1-2.05,13.31-2.05,7.67,0,15.35-7.68,15.35-15.35,0-9.21-.51-10.75,2.05-13.31,2.56-2.56,4.09-2.05,13.3-2.05s10.75-.51,13.31,2.05,2.05,4.1,2.05,13.31c0,7.67,7.67,15.35,15.35,15.35,9.21,0,10.75-.51,13.31,2.05,2.55,2.56,2.04,4.09,2.04,13.3v30.71c0,9.21.51,10.75-2.04,13.31-3.07,2.56-4.1,2.04-13.31,2.04s-10.75.52-13.31-2.04c-2.56-2.56-2.04-4.1-2.04-13.31v-30.71c0-7.67-7.68-15.35-15.36-15.35s-15.35,7.68-15.35,15.35v30.71c0,7.68,7.68,15.35,15.35,15.35,9.22,0,10.75-.51,13.31,2.05s2.05,4.1,2.05,13.31c0,7.67,7.67,15.35,15.35,15.35,9.21,0,10.75-.51,13.31,2.05,2.55,2.56,2.04,4.09,2.04,13.3,0,7.68,7.68,15.36,15.36,15.36s15.35-7.68,15.35-15.36c0-9.21-.51-10.74,2.05-13.3s4.09-2.05,13.3-2.05c7.68,0,15.36-7.68,15.36-15.35,0-9.21-.52-10.75,2.04-13.31s4.1-2.05,13.31-2.05c7.68,0,15.35-7.67,15.35-15.35v-30.71c0-7.67-7.67-15.35-15.35-15.35s-15.35,7.68-15.35,15.35v30.71c0,9.21.51,10.75-2.05,13.31-2.56,2.56-4.1,2.04-13.31,2.04s-10.23.52-13.3-2.04c-2.56-2.56-2.05-4.1-2.05-13.31v-30.71c0-9.21-.51-10.74,2.05-13.3s4.09-2.05,13.3-2.05c7.68,0,15.36-7.68,15.36-15.35,0-9.21-.52-10.75,2.04-13.31s4.1-2.05,13.31-2.05,10.75-.51,13.31,2.05c2.55,2.56,2.04,4.1,2.04,13.31,0,7.67,7.68,15.35,15.36,15.35,9.21,0,10.74-.51,13.3,2.05s2.05,4.09,2.05,13.3v30.71c0,9.21.51,10.75-2.05,13.31Z"/></svg>